<mxfile host="app.diagrams.net" agent="Mozilla/5.0 (Macintosh; Intel Mac OS X 10_15_7) AppleWebKit/605.1.15 (KHTML, like Gecko) Version/18.3.1 Safari/605.1.15" version="26.1.1">
  <diagram name="Page-1" id="3zGmeHMoxcLTCu4aQRj2">
    <mxGraphModel dx="3004" dy="2661" grid="0" gridSize="10" guides="1" tooltips="1" connect="1" arrows="1" fold="1" page="1" pageScale="1" pageWidth="827" pageHeight="1169" math="0" shadow="0">
      <root>
        <mxCell id="0" />
        <mxCell id="1" parent="0" />
        <mxCell id="CdNLvU-L0Fh2n5u2H3BX-19" value="" style="rounded=0;whiteSpace=wrap;html=1;dashed=1;dashPattern=8 8;strokeColor=#FF3333;" vertex="1" parent="1">
          <mxGeometry x="-327" y="272" width="1384" height="734" as="geometry" />
        </mxCell>
        <mxCell id="CdNLvU-L0Fh2n5u2H3BX-2" value="&lt;font style=&quot;font-size: 22px;&quot;&gt;Użytkownik&lt;/font&gt;&lt;div&gt;&lt;font style=&quot;font-size: 22px;&quot;&gt;[osoba]&lt;/font&gt;&lt;/div&gt;&lt;div&gt;&lt;div&gt;&lt;font style=&quot;font-size: 22px;&quot;&gt;Klient aplikacji&lt;/font&gt;&lt;/div&gt;&lt;div&gt;&lt;font style=&quot;font-size: 22px;&quot;&gt;z prywatnym kontem&lt;/font&gt;&lt;/div&gt;&lt;/div&gt;" style="rounded=1;whiteSpace=wrap;html=1;fillColor=#a20025;fontColor=#ffffff;strokeColor=#6F0000;" vertex="1" parent="1">
          <mxGeometry x="515" y="20" width="366" height="186" as="geometry" />
        </mxCell>
        <mxCell id="CdNLvU-L0Fh2n5u2H3BX-3" value="" style="ellipse;whiteSpace=wrap;html=1;aspect=fixed;fillColor=#a20025;fontColor=#ffffff;strokeColor=#6F0000;" vertex="1" parent="1">
          <mxGeometry x="613" y="-121" width="161" height="161" as="geometry" />
        </mxCell>
        <mxCell id="CdNLvU-L0Fh2n5u2H3BX-5" value="&lt;font&gt;&lt;b&gt;&lt;font style=&quot;font-size: 22px;&quot;&gt;Web Aplikacja&lt;/font&gt;&lt;/b&gt;&lt;span style=&quot;font-size: 19px;&quot;&gt;&amp;nbsp;&lt;/span&gt;&lt;/font&gt;&lt;div&gt;&lt;font style=&quot;font-size: 19px;&quot;&gt;[Container: Java and Spring MVC]&lt;/font&gt;&lt;/div&gt;&lt;div&gt;&lt;font style=&quot;font-size: 19px;&quot;&gt;&lt;br&gt;&lt;/font&gt;&lt;/div&gt;&lt;div&gt;&lt;font style=&quot;font-size: 19px;&quot;&gt;&lt;span style=&quot;text-align: start;&quot;&gt;Dostarcza statyczną zawartość&amp;nbsp;&lt;/span&gt;&lt;/font&gt;&lt;/div&gt;&lt;div&gt;&lt;font style=&quot;font-size: 19px;&quot;&gt;&lt;span style=&quot;text-align: start;&quot;&gt;oraz aplikację jednostronicową&amp;nbsp;&lt;/span&gt;&lt;/font&gt;&lt;/div&gt;&lt;div&gt;&lt;font&gt;&lt;span style=&quot;text-align: start;&quot;&gt;&lt;font style=&quot;font-size: 19px;&quot;&gt;dla systemu rezerwacji usług fryzjerskich ZnanyFryzjer&lt;/font&gt;&lt;/span&gt;&lt;br&gt;&lt;/font&gt;&lt;/div&gt;&lt;div&gt;&lt;span style=&quot;font-size: 19px;&quot;&gt;&lt;br&gt;&lt;/span&gt;&lt;div&gt;&lt;br&gt;&lt;/div&gt;&lt;/div&gt;" style="rounded=0;whiteSpace=wrap;html=1;" vertex="1" parent="1">
          <mxGeometry x="-216" y="332" width="331" height="219" as="geometry" />
        </mxCell>
        <mxCell id="CdNLvU-L0Fh2n5u2H3BX-6" value="&lt;font style=&quot;font-size: 22px;&quot;&gt;&lt;b&gt;Single-Page Aplikacja&lt;/b&gt;&lt;/font&gt;&lt;div&gt;&lt;font style=&quot;font-size: 19px;&quot;&gt;[Container: JavaScript]&lt;/font&gt;&lt;/div&gt;&lt;div&gt;&lt;font style=&quot;font-size: 19px;&quot;&gt;&lt;br&gt;&lt;/font&gt;&lt;/div&gt;&lt;div style=&quot;text-align: center;&quot;&gt;&lt;font&gt;&lt;span style=&quot;font-size: 19px; text-align: start;&quot;&gt;p&lt;/span&gt;&lt;span style=&quot;text-align: start;&quot;&gt;&lt;span style=&quot;font-size: 19px;&quot;&gt;rzeznaczona dla korzystania&amp;nbsp;&lt;/span&gt;&lt;/span&gt;&lt;/font&gt;&lt;/div&gt;&lt;div style=&quot;text-align: center;&quot;&gt;&lt;font&gt;&lt;span style=&quot;text-align: start;&quot;&gt;&lt;span style=&quot;font-size: 19px;&quot;&gt;używając przeglądarkę.&lt;/span&gt;&lt;/span&gt;&lt;/font&gt;&lt;/div&gt;&lt;div style=&quot;text-align: center;&quot;&gt;&lt;font&gt;&lt;span style=&quot;text-align: start;&quot;&gt;&lt;span style=&quot;font-size: 19px;&quot;&gt;&amp;nbsp;&lt;/span&gt;&lt;/span&gt;&lt;span style=&quot;font-size: 19px;&quot;&gt;Nadaję pełny funkcjonał &amp;nbsp;&lt;/span&gt;&lt;br&gt;&lt;/font&gt;&lt;/div&gt;" style="rounded=0;whiteSpace=wrap;html=1;" vertex="1" parent="1">
          <mxGeometry x="329" y="338" width="338" height="197" as="geometry" />
        </mxCell>
        <mxCell id="CdNLvU-L0Fh2n5u2H3BX-7" value="&lt;font style=&quot;font-size: 22px;&quot;&gt;&lt;b&gt;Aplikacja Mobilna&lt;/b&gt;&lt;/font&gt;&lt;div&gt;&lt;font style=&quot;font-size: 19px;&quot;&gt;[Container: Kotlin, Swift]&lt;/font&gt;&lt;/div&gt;&lt;div&gt;&lt;font style=&quot;font-size: 19px;&quot;&gt;&lt;br&gt;&lt;/font&gt;&lt;/div&gt;&lt;div&gt;&lt;font&gt;&lt;font style=&quot;font-size: 19px;&quot;&gt;&lt;span style=&quot;text-align: start;&quot;&gt;p&lt;/span&gt;&lt;span style=&quot;text-align: start;&quot;&gt;&lt;font&gt;rzeznaczona dla urządzeń mobilnych. Obsługuje te same funkcje co aplikacja webowa&lt;/font&gt;&lt;/span&gt;&lt;/font&gt;&lt;br&gt;&lt;/font&gt;&lt;/div&gt;" style="rounded=0;whiteSpace=wrap;html=1;" vertex="1" parent="1">
          <mxGeometry x="701" y="338" width="321" height="195" as="geometry" />
        </mxCell>
        <mxCell id="CdNLvU-L0Fh2n5u2H3BX-8" value="&lt;font style=&quot;font-size: 22px;&quot;&gt;&lt;b&gt;E-mail System&lt;/b&gt;&lt;/font&gt;&lt;div&gt;&lt;font style=&quot;font-size: 19px;&quot;&gt;[Software System]&lt;/font&gt;&lt;/div&gt;&lt;div&gt;&lt;font style=&quot;font-size: 19px;&quot;&gt;&lt;br&gt;&lt;/font&gt;&lt;/div&gt;&lt;div&gt;&lt;font&gt;&lt;font style=&quot;font-size: 19px;&quot;&gt;Wewnętrzny system e-mail Microsoft Exchange.&lt;/font&gt;&lt;br&gt;&lt;/font&gt;&lt;/div&gt;" style="rounded=0;whiteSpace=wrap;html=1;" vertex="1" parent="1">
          <mxGeometry x="1157" y="338" width="281" height="177" as="geometry" />
        </mxCell>
        <mxCell id="CdNLvU-L0Fh2n5u2H3BX-9" value="&lt;font style=&quot;font-size: 23px;&quot;&gt;&lt;b&gt;Baza Danych&lt;/b&gt;&lt;/font&gt;&lt;div&gt;&lt;font style=&quot;font-size: 19px;&quot;&gt;[Container: PostgreSQL]&lt;/font&gt;&lt;/div&gt;&lt;div&gt;&lt;font style=&quot;font-size: 19px;&quot;&gt;&lt;br&gt;&lt;/font&gt;&lt;/div&gt;&lt;div&gt;&lt;font&gt;&lt;span style=&quot;text-align: start;&quot;&gt;&lt;font style=&quot;font-size: 19px;&quot;&gt;Przechowuje wszystkie dane użytkowników, rezerwacji, usług itp&lt;/font&gt;&lt;/span&gt;&lt;br&gt;&lt;/font&gt;&lt;/div&gt;" style="shape=cylinder3;whiteSpace=wrap;html=1;boundedLbl=1;backgroundOutline=1;size=15;" vertex="1" parent="1">
          <mxGeometry x="-181" y="760" width="312" height="227" as="geometry" />
        </mxCell>
        <mxCell id="CdNLvU-L0Fh2n5u2H3BX-10" value="&lt;font style=&quot;font-size: 22px;&quot;&gt;&lt;b&gt;API Aplikacja&lt;/b&gt;&lt;/font&gt;&lt;div&gt;&lt;font style=&quot;font-size: 19px;&quot;&gt;[Container: Java and Spring MVC]&lt;/font&gt;&lt;/div&gt;&lt;div&gt;&lt;font style=&quot;font-size: 19px;&quot;&gt;&lt;br&gt;&lt;/font&gt;&lt;/div&gt;&lt;div&gt;&lt;font&gt;&lt;span style=&quot;text-align: start;&quot;&gt;&lt;font style=&quot;font-size: 19px;&quot;&gt;Backendowy system obsługujący żądania aplikacji webowej i mobilnej.&lt;/font&gt;&lt;/span&gt;&lt;br&gt;&lt;/font&gt;&lt;/div&gt;" style="rounded=0;whiteSpace=wrap;html=1;" vertex="1" parent="1">
          <mxGeometry x="538" y="748" width="344" height="227" as="geometry" />
        </mxCell>
        <mxCell id="CdNLvU-L0Fh2n5u2H3BX-11" value="&lt;font style=&quot;font-size: 22px;&quot;&gt;&lt;b&gt;Amazon S3&lt;/b&gt;&lt;/font&gt;&lt;div&gt;&lt;font style=&quot;font-size: 19px;&quot;&gt;[Software system]&lt;/font&gt;&lt;/div&gt;&lt;div&gt;&lt;font style=&quot;font-size: 19px;&quot;&gt;&lt;br&gt;&lt;/font&gt;&lt;/div&gt;&lt;div&gt;&lt;font&gt;&lt;span style=&quot;text-align: start;&quot;&gt;&lt;font style=&quot;font-size: 19px;&quot;&gt;Zewnętrzny system przechowywania plików, np. zdjęć użytkowników, dokumentacji lub innych zasobów związanych z aplikacją.&lt;/font&gt;&lt;/span&gt;&lt;br&gt;&lt;/font&gt;&lt;/div&gt;" style="rounded=0;whiteSpace=wrap;html=1;" vertex="1" parent="1">
          <mxGeometry x="1243" y="748" width="281" height="217" as="geometry" />
        </mxCell>
        <mxCell id="CdNLvU-L0Fh2n5u2H3BX-18" value="&lt;font style=&quot;font-size: 19px;&quot;&gt;Odwiedź&lt;/font&gt; &lt;font style=&quot;font-size: 19px;&quot;&gt;ZnanyFryjer&lt;/font&gt;&lt;div&gt;&lt;font style=&quot;font-size: 19px;&quot;&gt;[HTTPS]&lt;/font&gt;&lt;/div&gt;" style="endArrow=open;endSize=12;dashed=1;html=1;rounded=0;" edge="1" parent="1">
          <mxGeometry width="160" relative="1" as="geometry">
            <mxPoint x="518" y="106" as="sourcePoint" />
            <mxPoint x="-1" y="325" as="targetPoint" />
          </mxGeometry>
        </mxCell>
        <mxCell id="CdNLvU-L0Fh2n5u2H3BX-20" value="Use" style="endArrow=open;endSize=12;dashed=1;html=1;rounded=0;entryX=-0.018;entryY=0.412;entryDx=0;entryDy=0;entryPerimeter=0;" edge="1" parent="1" target="CdNLvU-L0Fh2n5u2H3BX-6">
          <mxGeometry width="160" relative="1" as="geometry">
            <mxPoint x="116" y="410" as="sourcePoint" />
            <mxPoint x="276" y="410" as="targetPoint" />
          </mxGeometry>
        </mxCell>
        <mxCell id="CdNLvU-L0Fh2n5u2H3BX-21" value="Use" style="endArrow=open;endSize=12;dashed=1;html=1;rounded=0;entryX=0.25;entryY=0;entryDx=0;entryDy=0;" edge="1" parent="1" target="CdNLvU-L0Fh2n5u2H3BX-6">
          <mxGeometry width="160" relative="1" as="geometry">
            <mxPoint x="572" y="206" as="sourcePoint" />
            <mxPoint x="732" y="206" as="targetPoint" />
          </mxGeometry>
        </mxCell>
        <mxCell id="CdNLvU-L0Fh2n5u2H3BX-29" value="&lt;font style=&quot;font-size: 19px;&quot;&gt;Przegląd i rezerwacja usług,&lt;/font&gt;&lt;div&gt;&lt;font style=&quot;font-size: 19px;&quot;&gt;zarządzanie&amp;nbsp;&lt;/font&gt;&lt;span style=&quot;font-size: 19px;&quot;&gt;kontem, oplata&lt;/span&gt;&lt;font&gt;&amp;nbsp;&lt;font style=&quot;font-size: 19px;&quot;&gt;usług&lt;/font&gt;&amp;nbsp;&lt;/font&gt;&lt;/div&gt;&lt;div&gt;&lt;/div&gt;" style="edgeLabel;html=1;align=center;verticalAlign=middle;resizable=0;points=[];" vertex="1" connectable="0" parent="CdNLvU-L0Fh2n5u2H3BX-21">
          <mxGeometry x="-0.0665" y="-4" relative="1" as="geometry">
            <mxPoint as="offset" />
          </mxGeometry>
        </mxCell>
        <mxCell id="CdNLvU-L0Fh2n5u2H3BX-22" value="&lt;font style=&quot;font-size: 19px;&quot;&gt;Przegląd i rezerwacja usług,&lt;/font&gt;&lt;div&gt;&lt;font style=&quot;font-size: 19px;&quot;&gt;zarządzanie kontem,&amp;nbsp;&lt;/font&gt;&lt;span style=&quot;font-size: 19px;&quot;&gt;oplata&lt;/span&gt;&amp;nbsp;&lt;font style=&quot;font-size: 19px;&quot;&gt;usług&lt;/font&gt;&lt;/div&gt;" style="endArrow=open;endSize=12;dashed=1;html=1;rounded=0;entryX=0.75;entryY=0;entryDx=0;entryDy=0;" edge="1" parent="1" target="CdNLvU-L0Fh2n5u2H3BX-7">
          <mxGeometry width="160" relative="1" as="geometry">
            <mxPoint x="764" y="204" as="sourcePoint" />
            <mxPoint x="648" y="336" as="targetPoint" />
          </mxGeometry>
        </mxCell>
        <mxCell id="CdNLvU-L0Fh2n5u2H3BX-23" value="&lt;font style=&quot;font-size: 19px;&quot;&gt;Wysyla e-mail do&lt;/font&gt;" style="endArrow=open;endSize=12;dashed=1;html=1;rounded=0;entryX=1;entryY=0.25;entryDx=0;entryDy=0;" edge="1" parent="1" target="CdNLvU-L0Fh2n5u2H3BX-2">
          <mxGeometry x="-0.0013" width="160" relative="1" as="geometry">
            <mxPoint x="1228" y="338" as="sourcePoint" />
            <mxPoint x="1388" y="338" as="targetPoint" />
            <mxPoint as="offset" />
          </mxGeometry>
        </mxCell>
        <mxCell id="CdNLvU-L0Fh2n5u2H3BX-24" value="&lt;font style=&quot;font-size: 19px;&quot;&gt;Robię API zapytania do&lt;/font&gt;&lt;div&gt;&lt;font style=&quot;font-size: 19px;&quot;&gt;[JSON/HTTPS]&lt;/font&gt;&lt;/div&gt;" style="endArrow=open;endSize=12;dashed=1;html=1;rounded=0;entryX=0.25;entryY=0;entryDx=0;entryDy=0;" edge="1" parent="1" target="CdNLvU-L0Fh2n5u2H3BX-10">
          <mxGeometry x="-0.0047" width="160" relative="1" as="geometry">
            <mxPoint x="490" y="516" as="sourcePoint" />
            <mxPoint x="650" y="516" as="targetPoint" />
            <mxPoint as="offset" />
          </mxGeometry>
        </mxCell>
        <mxCell id="CdNLvU-L0Fh2n5u2H3BX-25" value="&lt;font style=&quot;font-size: 19px;&quot;&gt;Robię &amp;nbsp;API zapytania do&lt;/font&gt;&lt;div&gt;&lt;font style=&quot;font-size: 19px;&quot;&gt;[JSON/HTTPS]&lt;br&gt;&lt;/font&gt;&lt;div&gt;&lt;br&gt;&lt;/div&gt;&lt;/div&gt;" style="endArrow=open;endSize=12;dashed=1;html=1;rounded=0;entryX=0.75;entryY=0;entryDx=0;entryDy=0;" edge="1" parent="1" target="CdNLvU-L0Fh2n5u2H3BX-10">
          <mxGeometry width="160" relative="1" as="geometry">
            <mxPoint x="827" y="515" as="sourcePoint" />
            <mxPoint x="945" y="747" as="targetPoint" />
          </mxGeometry>
        </mxCell>
        <mxCell id="CdNLvU-L0Fh2n5u2H3BX-26" value="&lt;font style=&quot;font-size: 19px;&quot;&gt;Pobiera informacje z i&lt;/font&gt;&lt;div&gt;&lt;font style=&quot;font-size: 19px;&quot;&gt;&amp;nbsp;zapisuje do&lt;/font&gt;&lt;/div&gt;&lt;div&gt;&lt;font style=&quot;font-size: 19px;&quot;&gt;[SQL/TCP]&lt;/font&gt;&lt;/div&gt;" style="endArrow=open;endSize=12;dashed=1;html=1;rounded=0;entryX=1;entryY=0.5;entryDx=0;entryDy=0;entryPerimeter=0;exitX=0.004;exitY=0.593;exitDx=0;exitDy=0;exitPerimeter=0;" edge="1" parent="1" source="CdNLvU-L0Fh2n5u2H3BX-10" target="CdNLvU-L0Fh2n5u2H3BX-9">
          <mxGeometry width="160" relative="1" as="geometry">
            <mxPoint x="534" y="832" as="sourcePoint" />
            <mxPoint x="694" y="832" as="targetPoint" />
          </mxGeometry>
        </mxCell>
        <mxCell id="CdNLvU-L0Fh2n5u2H3BX-27" value="&lt;font style=&quot;font-size: 19px;&quot;&gt;Wysyla e-mail&amp;nbsp;&lt;/font&gt;&lt;div&gt;&lt;font style=&quot;font-size: 19px;&quot;&gt;korzystając z&amp;nbsp;&lt;/font&gt;&lt;/div&gt;" style="endArrow=open;endSize=12;dashed=1;html=1;rounded=0;entryX=0;entryY=1;entryDx=0;entryDy=0;" edge="1" parent="1" target="CdNLvU-L0Fh2n5u2H3BX-8">
          <mxGeometry x="-0.0037" width="160" relative="1" as="geometry">
            <mxPoint x="822" y="754" as="sourcePoint" />
            <mxPoint x="982" y="754" as="targetPoint" />
            <mxPoint as="offset" />
          </mxGeometry>
        </mxCell>
        <mxCell id="CdNLvU-L0Fh2n5u2H3BX-28" value="&lt;font style=&quot;font-size: 19px;&quot;&gt;Robię API zapytania do&lt;/font&gt;&lt;div&gt;&lt;font style=&quot;font-size: 19px;&quot;&gt;[HTTP/HTTPS]&lt;/font&gt;&lt;/div&gt;" style="endArrow=open;endSize=12;dashed=1;html=1;rounded=0;entryX=0;entryY=0.5;entryDx=0;entryDy=0;" edge="1" parent="1" target="CdNLvU-L0Fh2n5u2H3BX-11">
          <mxGeometry x="0.0007" width="160" relative="1" as="geometry">
            <mxPoint x="820" y="842" as="sourcePoint" />
            <mxPoint x="980" y="842" as="targetPoint" />
            <mxPoint as="offset" />
          </mxGeometry>
        </mxCell>
      </root>
    </mxGraphModel>
  </diagram>
</mxfile>
